<svg xmlns="http://www.w3.org/2000/svg" width="1013.733" height="66.065" viewBox="0 0 1013.733 66.065">
  <g id="_02" data-name="02" transform="translate(0.033)">
    <g id="Layer_2_1_">
      <g id="Layer_1-2">
        <path id="Path_89120" data-name="Path 89120" d="M1013.7,0V20.9c-7.3.7-14.7,1.5-22.1,2.2q-59.7,5.25-119.4,10.4c-46.8,4.2-93.5,8.5-140.3,12.6-39.3,3.5-78.6,6.8-118,10.4-35.2,3.1-70.3,6.7-105.5,9.4-9.5.7-19.2-1-28.8-1.9-32.2-2.8-64.3-5.7-96.5-8.7q-47.25-4.2-94.5-8.6c-27.4-2.5-54.7-4.9-82.1-7.4l-96-8.7q-42-3.75-84.1-7.4C18.8,22.5,11.1,22,3.5,21,2.2,21,1,19.2.2,17.9c0-.1-.1-.1-.1-.2-.3-.7,0-1.9,0-2.8V0Z" fill="#fff"/>
      </g>
    </g>
    <path id="Path_89121" data-name="Path 89121" d="M1013.7,0V20.9c-7.3.7-14.7,1.5-22.1,2.2q-59.7,5.25-119.4,10.4c-46.8,4.2-93.5,8.5-140.3,12.6-39.3,3.5-78.6,6.8-118,10.4-35.2,3.1-70.3,6.7-105.5,9.4-9.5.7-19.2-1-28.8-1.9-32.2-2.8-64.3-5.7-96.5-8.7q-47.25-4.2-94.5-8.6c-27.4-2.5-54.7-4.9-82.1-7.4l-96-8.7q-42-3.75-84.1-7.4C18.8,22.5,11.1,22,3.5,21,2.2,21,1,19.2.2,17.9c0-.1-.1-.1-.1-.2V0Z" fill="#fff"/>
  </g>
</svg>
