<svg id="Group_1" data-name="Group 1" xmlns="http://www.w3.org/2000/svg" width="60.65" height="38.825" viewBox="0 0 60.65 38.825">
  <path id="Path_1" data-name="Path 1" d="M226.941,525.567a1.752,1.752,0,0,1-.21-.15q-3.512-3.425-7.023-6.85c-.131-.128-.141-.187,0-.32.973-.938,1.926-1.9,2.9-2.83,2.069-1.974,4.09-4,6.142-5.986a.434.434,0,0,1,.329-.146q5.813.006,11.626,0a.27.27,0,0,1,.22.057,1.619,1.619,0,0,0-.2.146c-1.915,1.885-3.819,3.783-5.747,5.656-1.066,1.035-2.114,2.087-3.183,3.118-.12.117-.118.171,0,.286q3.5,3.435,6.995,6.88c.121.12.186.131.314,0q2.675-2.63,5.359-5.253a.511.511,0,0,1,.392-.161q5.062.007,10.125,0c.208,0,.275.039.273.263-.011,1.679-.006,3.36-.006,5.04v.241a.426.426,0,0,0,.2-.147q2.676-2.63,5.349-5.263a.405.405,0,0,1,.308-.141q5.88.007,11.761,0c.021,0,.043,0,.079,0-.014.092-.09.134-.144.187q-3.257,3.188-6.517,6.375-5.418,5.3-10.831,10.613a.506.506,0,0,1-.39.161q-4.211-.009-8.422,0c-.2,0-.242-.053-.24-.245.012-.9,0-1.805,0-2.722-.1,0-.139.084-.192.136q-1.356,1.337-2.706,2.678a.455.455,0,0,1-.35.15q-15.323,0-30.645,0c-.183,0-.215-.056-.215-.224q.007-5.633,0-11.267c0-.212.069-.234.251-.234q7.057.007,14.113,0h.237Z" transform="translate(-212.288 -509.285)" fill="#231f20"/>
  <path id="Path_2" data-name="Path 2" d="M271.525,509.288c-.633.644-1.24,1.27-1.858,1.885q-1.863,1.859-3.735,3.708c-.206.2-.426.4-.628.6a.344.344,0,0,1-.288.08H249.052a2.021,2.021,0,0,1,.418-.413q2.919-2.861,5.839-5.721a.459.459,0,0,1,.352-.145q7.827.006,15.654,0Z" transform="translate(-213.632 -509.285)" fill="#231f20"/>
  <path id="Path_4" data-name="Path 4" d="M232.733,545.313c0-1.247,0-2.493,0-3.741,0-.174.041-.229.222-.225.485.014.971.016,1.456,0a.916.916,0,0,1,.916.539c.769,1.422,1.556,2.833,2.336,4.249.025.045.053.091.077.136s.046.082.1.074.049-.064.051-.106,0-.1,0-.157c0-1.5,0-3,0-4.5,0-.188.051-.238.236-.233.456.014.911.01,1.367,0,.134,0,.178.031.178.173q-.007,3.8,0,7.593c0,.127-.036.165-.163.163-.44-.007-.882-.013-1.321,0a.864.864,0,0,1-.849-.5q-1.244-2.249-2.5-4.49c-.059-.1-.119-.207-.175-.311-.024-.044-.058-.069-.108-.052s-.035.06-.036.094c0,.053,0,.1,0,.157,0,1.627,0,3.255,0,4.883,0,.181-.052.223-.224.219-.448-.012-.9-.014-1.344,0-.187.006-.217-.062-.216-.228C232.736,547.806,232.733,546.559,232.733,545.313Z" transform="translate(-213.035 -510.457)" fill="#231f20"/>
  <path id="Path_5" data-name="Path 5" d="M221.2,545.619c.083.028.123.044.166.056a1.2,1.2,0,0,1,1.066,1.306c.039.724.057,1.447.128,2.168.011.1-.02.129-.118.128-.538,0-1.075,0-1.613,0-.1,0-.138-.03-.15-.136-.069-.578-.108-1.158-.127-1.74a5.544,5.544,0,0,0-.043-.58.528.528,0,0,0-.523-.515c-.671-.069-1.343-.016-2.015-.033-.157,0-.111.11-.111.188,0,.844-.012,1.687,0,2.531,0,.237-.063.3-.292.287-.462-.018-.926-.011-1.389,0-.134,0-.176-.03-.176-.172q.007-3.786,0-7.571c0-.148.042-.189.189-.188,1.531,0,3.062,0,4.592.006a3.1,3.1,0,0,1,.535.044,1.3,1.3,0,0,1,1.11,1.129,5.484,5.484,0,0,1,.041,1.8C222.364,545.1,222.044,545.42,221.2,545.619Zm-2.165-2.807v-.02c-.343,0-.686,0-1.029,0-.1,0-.151.013-.15.131,0,.618,0,1.238,0,1.857,0,.087.014.139.12.136.724-.016,1.447.026,2.17-.025a.372.372,0,0,0,.368-.3,2.969,2.969,0,0,0,0-1.482.352.352,0,0,0-.366-.3Z" transform="translate(-212.424 -510.457)" fill="#231f20"/>
  <path id="Path_6" data-name="Path 6" d="M255.7,549.268c-.522,0-1.045.016-1.567,0a1.55,1.55,0,0,1-1.608-1.305,11.609,11.609,0,0,1-.246-3.223,8.483,8.483,0,0,1,.2-1.909c.3-1.165.841-1.454,1.735-1.467,1.051-.015,2.1-.028,3.155.012a1.554,1.554,0,0,1,1.516,1.277,8.231,8.231,0,0,1,.25,2.081,13.878,13.878,0,0,1-.156,2.855,3.115,3.115,0,0,1-.241.787,1.47,1.47,0,0,1-1.407.891c-.545.008-1.09,0-1.635,0Zm-1.533-3.973c0,.119,0,.239,0,.358a11.235,11.235,0,0,0,.105,1.7c.061.356.143.44.5.446q.939.014,1.881,0c.347,0,.432-.094.5-.446a7.591,7.591,0,0,0,.1-1.272,16.809,16.809,0,0,0-.1-2.793c-.057-.376-.167-.468-.55-.471q-.884-.007-1.769,0c-.393,0-.492.1-.558.489A13.564,13.564,0,0,0,254.163,545.3Z" transform="translate(-213.749 -510.457)" fill="#231f20"/>
  <path id="Path_7" data-name="Path 7" d="M274.85,541.352c0,.1-.071.146-.115.2q-1.331,1.687-2.668,3.368a.215.215,0,0,0-.007.32q1.382,1.873,2.75,3.755c.057.077.112.156.166.231-.032.075-.092.047-.138.047-.613,0-1.225,0-1.836,0a.29.29,0,0,1-.269-.15q-1.074-1.528-2.155-3.05a.583.583,0,0,0-.571-.161c-.1.043-.052.13-.053.2,0,.978-.007,1.956,0,2.934,0,.182-.036.24-.228.234-.477-.016-.955-.01-1.433,0-.137,0-.191-.022-.19-.178q.007-3.783,0-7.569c0-.153.049-.184.19-.182.492.008.986.01,1.478,0,.156,0,.182.052.181.192q-.009,1.344,0,2.687c0,.093-.066.218.051.282a.575.575,0,0,0,.527-.118L272,542.468q.371-.49.744-.98c.048-.063.086-.139.189-.138C273.569,541.353,274.207,541.352,274.85,541.352Z" transform="translate(-214.328 -510.457)" fill="#231f20"/>
  <path id="Path_8" data-name="Path 8" d="M227.516,541.324c.269,0,.538,0,.806,0,.346.006.457.077.575.418.224.646.436,1.3.652,1.948l1.765,5.341c.079.242.078.242-.186.242-.493,0-.987-.012-1.478.007-.191.007-.255-.064-.3-.232-.15-.529-.32-1.054-.474-1.582-.034-.118-.081-.167-.213-.166q-1.2.01-2.4,0c-.144,0-.19.057-.225.178-.157.543-.327,1.084-.478,1.628a.2.2,0,0,1-.231.171c-.486-.008-.971-.013-1.456,0-.193.006-.2-.045-.147-.21q1.078-3.241,2.145-6.487c.093-.282.184-.567.286-.846.125-.344.217-.4.575-.412h.784Zm-.063,4.6c.276,0,.551,0,.827,0,.1,0,.131-.018.1-.128q-.409-1.343-.809-2.689c-.016-.054-.016-.117-.1-.122-.1-.006-.1.072-.121.129-.268.889-.532,1.779-.8,2.669-.035.115-.008.145.106.143C226.917,545.922,227.186,545.925,227.453,545.925Z" transform="translate(-212.705 -510.456)" fill="#231f20"/>
  <path id="Path_9" data-name="Path 9" d="M244.63,545.3c0-1.248,0-2.494,0-3.741,0-.162.031-.216.205-.215,1.4.008,2.807,0,4.211.007a5.211,5.211,0,0,1,.625.044,1.332,1.332,0,0,1,1.137.977,5.164,5.164,0,0,1,.207,1.967,3.97,3.97,0,0,1-.2,1.208,1.373,1.373,0,0,1-1.245,1c-.164.014-.328.031-.491.032-.784,0-1.568.008-2.352,0-.188,0-.254.031-.25.239.014.753,0,1.508.01,2.262,0,.153-.033.2-.194.2-.486-.012-.971-.013-1.456,0-.178.006-.2-.056-.2-.214C244.633,547.812,244.63,546.557,244.63,545.3Zm1.846-1.352c0,.343,0,.686,0,1.029,0,.086-.009.164.12.161.678-.014,1.357.016,2.035-.017a.407.407,0,0,0,.413-.363,3.935,3.935,0,0,0,0-1.577.39.39,0,0,0-.451-.372c-.655-.014-1.311-.013-1.967-.022-.118,0-.155.039-.152.155C246.48,543.281,246.476,543.616,246.476,543.951Z" transform="translate(-213.47 -510.457)" fill="#231f20"/>
  <g id="Group_18" data-name="Group 18">
    <path id="Path_3" data-name="Path 3" d="M274.574,521.993v.272q0,3.337.006,6.673a.485.485,0,0,1-.163.388q-4.265,4.159-8.521,8.325a.536.536,0,0,1-.409.173q-3.4-.009-6.808,0h-.274Z" transform="translate(-213.974 -509.749)" fill="#ed1d23"/>
    <path id="Path_10" data-name="Path 10" d="M267.6,538.15l7.277-7.123a.391.391,0,0,1,.03.234c0,2.217,0,4.434.006,6.65,0,.2-.05.244-.246.244-2.269-.008-4.538,0-6.807,0Z" transform="translate(-214.31 -510.08)" fill="#ed1d23"/>
  </g>
  <path id="Path_11" data-name="Path 11" d="M263.4,541.352c1.038,0,2.075,0,3.112,0,.193,0,.237.057.229.238-.015.335-.015.672,0,1.007.008.181-.034.241-.227.237-.649-.013-1.3,0-1.947-.011-.212,0-.275.042-.274.265.01,1.985,0,3.969.011,5.955,0,.2-.051.25-.246.243-.448-.016-.9-.017-1.343,0-.209.008-.274-.039-.273-.263.011-1.977,0-3.955.012-5.932,0-.215-.048-.274-.267-.269-.648.016-1.3,0-1.947.011-.175,0-.212-.052-.206-.215.012-.35.012-.7,0-1.051-.006-.166.039-.216.21-.214C261.3,541.356,262.348,541.352,263.4,541.352Z" transform="translate(-214.033 -510.457)" fill="#231f20"/>
  <path id="Path_12" data-name="Path 12" d="M214.186,545.3c0,1.254,0,2.509,0,3.762,0,.165-.035.213-.205.208-.507-.012-1.015-.009-1.522,0-.127,0-.161-.035-.161-.161q.006-3.807,0-7.614c0-.124.031-.163.159-.162.515.008,1.031.009,1.545,0,.146,0,.184.038.184.183C214.184,542.779,214.186,544.04,214.186,545.3Z" transform="translate(-212.289 -510.456)" fill="#231f20"/>
</svg>
