<?xml version="1.0" encoding="utf-8"?>
<!-- Generator: Adobe Illustrator 27.5.0, SVG Export Plug-In . SVG Version: 6.00 Build 0)  -->
<svg version="1.1" id="Layer_1" xmlns="http://www.w3.org/2000/svg" xmlns:xlink="http://www.w3.org/1999/xlink" x="0px" y="0px"
	 viewBox="0 0 177.2 33.3" style="enable-background:new 0 0 177.2 33.3;" xml:space="preserve">
<style type="text/css">
	.st0{fill:#FFFFFF;}
	.st1{fill:#E4E4E4;}
</style>
<path class="st0" d="M177.2,31.5v1.6H0v-1.7h0.1c5.5,0.2,11.1-0.3,16.5-1.5c2.4-0.6,4.7-1.4,7-2.4c5.7-2.5,9.2-7.2,12.7-11.6
	c2.3-2.9,4.6-6,7.5-8.3c6.3-5.1,14.6-4.9,19.5-4.7L65.5,3h42.9l4.4-0.1c4.5-0.1,8.1-0.2,11.8,1c1.3,0.5,2.6,1.1,3.8,1.8
	c0.5,0.2,0.9,0.5,1.3,0.7c3.5,2,6.6,4.5,9.4,7.5c2.9,3.2,4.6,5.5,6,7.4c1.9,2.6,3.2,4.3,6.1,6.4c4.3,2.8,8.1,3.7,11.1,3.8
	c0.1,0,0.3,0,0.4,0c0.1,0,0.3,0,0.4,0H177.2z"/>
<path class="st1" d="M177.2,31.5v1.6H163c-1.7,0-4-0.2-6.7-1.1c-2.7-0.9-4.8-2.1-6.2-3c-2.5-1.8-4.7-4.1-6.4-6.7
	c-1.4-1.8-3.1-4.1-5.9-7.3c-3.8-4.1-8.5-7.4-13.7-9.5c-3.5-1.1-6.9-1-11.3-0.9l-4.4,0.1H65.6l-2.3-0.1c-5-0.2-12.6-0.4-18.4,4.3
	c-2.7,2.2-4.9,5-7.2,8c-3.6,4.6-7.3,9.4-13.3,12.1c-2.3,1.1-4.8,1.9-7.3,2.5C12.6,32.5,8,33,3.4,33c-0.6,0-1.3,0-1.9,0H0v-1.6h0.1
	c5.5,0.2,11.1-0.3,16.5-1.5c2.4-0.6,4.7-1.4,7-2.4c5.7-2.5,9.2-7.2,12.7-11.6c2.3-2.9,4.6-6,7.5-8.3c6.3-5.1,14.6-4.9,19.5-4.7
	L65.5,3h42.9l4.4-0.1c4.5-0.1,8.1-0.2,11.8,1c1.3,0.5,2.6,1.1,3.8,1.8c0.5,0.2,0.9,0.5,1.3,0.7c3.5,2,6.6,4.5,9.4,7.5
	c2.9,3.2,4.6,5.5,6,7.4c1.9,2.6,3.2,4.3,6.1,6.4c4.3,2.8,8.1,3.7,11.1,3.8c0.1,0,0.3,0,0.4,0c0.1,0,0.3,0,0.4,0H177.2z"/>
</svg>
