    <svg id="Group_27" data-name="Group 27" xmlns="http://www.w3.org/2000/svg"
                                    width="49.389" height="36.222" viewBox="0 0 49.389 36.222">
                                    <path id="Path_60" data-name="Path 60"
                                        d="M5.165,246c2.328,0,4.657-.01,6.985,0a3.406,3.406,0,0,1,3.318,2.059,4.387,4.387,0,0,1,.357,1.737c.032,3.5.027,7,.012,10.5a3.56,3.56,0,0,1-3.726,3.8q-3.664.009-7.328-.005a.5.5,0,0,0-.572.417A51.462,51.462,0,0,0,2.086,274a3.8,3.8,0,0,0,1.131,3.352,2.829,2.829,0,0,1,.946,1.862,2.684,2.684,0,0,1-2.156,2.9,4.058,4.058,0,0,1-.85.089q-3.129.011-6.257,0a3.573,3.573,0,0,1-3.7-3.189,6.485,6.485,0,0,1,.05-1.659,38.133,38.133,0,0,1,3.284-12,1.832,1.832,0,0,0-.828-2.572,8.953,8.953,0,0,1-3.429-3.83,8.941,8.941,0,0,1,5.551-12.525,11.949,11.949,0,0,1,2.913-.414C.878,245.961,3.022,246,5.165,246Z"
                                        transform="translate(10.614 -245.988)" />
                                    <path id="Path_61" data-name="Path 61"
                                        d="M327.229,290.712c-.174.2-.252.3-.34.392q-3.148,3.23-6.293,6.463a.953.953,0,0,1-.824.349,5.816,5.816,0,0,0-.9,0c-.3.02-.4-.1-.395-.4.015-.922.005-1.844.005-2.766,0-2.4.008-4.8-.009-7.2,0-.389.116-.458.479-.5a2.333,2.333,0,0,1,2.227.935c.732.875,1.57,1.658,2.386,2.457a1.017,1.017,0,0,0,.628.265C325.161,290.728,326.128,290.712,327.229,290.712Z"
                                        transform="translate(-290.26 -283.414)" />
                                    <path id="Path_62" data-name="Path 62"
                                        d="M158.813,479.462c.462-2.037.907-4,1.353-5.961.006-.028.018-.055.027-.083.363-1.216.363-1.216,1.686-1.083a1.729,1.729,0,0,1,1.6,1.606q.056,1.973,0,3.949a1.627,1.627,0,0,1-1.447,1.555C161.014,479.516,159.988,479.462,158.813,479.462Z"
                                        transform="translate(-144.286 -452.378)" />
                                    <path id="Path_63" data-name="Path 63"
                                        d="M428.486,329.161c-.248.214-.511.413-.742.645-.833.842-1.652,1.7-2.485,2.541a.731.731,0,0,1-.424.244c-1.068.021-2.137.011-3.313.011.146-.169.227-.276.32-.37.967-.994,1.934-1.99,2.909-2.976a.742.742,0,0,1,.42-.254c1.067-.021,2.134-.012,3.2-.012Z"
                                        transform="translate(-384.47 -321.689)" />
                                    <path id="Path_64" data-name="Path 64"
                                        d="M510.8,331.865c-.5.471-1.066,1-1.635,1.531a.379.379,0,0,1-.22.114c-1.1.007-2.21.005-3.267.005l3.441-3.521Z"
                                        transform="translate(-461.406 -322.606)" />
                                </svg>