 <svg xmlns="http://www.w3.org/2000/svg" width="47.682" height="67.162"
                                    viewBox="0 0 47.682 67.162">
                                    <g id="Group_47" data-name="Group 47"
                                        transform="matrix(0.914, 0.407, -0.407, 0.914, 18.526, -0.239)">
                                        <path id="Path_86" data-name="Path 86"
                                            d="M20.769,46.112l-8.942-.085a2.406,2.406,0,0,1,.106-.381c.606-1.262,1.226-2.517,1.82-3.785a.615.615,0,0,1,.677-.41c.566.032,1.134.018,1.742.024l-.148-15.916A8.729,8.729,0,0,0,14.4,28.831a19.352,19.352,0,0,0-.492,3.677c-.066,2.008,0,4.023.041,6.035.008.432-.1.577-.553.554a69.461,69.461,0,0,1-12.54-1.67c-.354-.084-.485-.21-.488-.586C.337,32.259.2,27.672.27,23.093A25.861,25.861,0,0,1,6.19,6.566,20.32,20.32,0,0,1,15.584.182a.928.928,0,0,1,.569.029A22.484,22.484,0,0,1,29.1,12.146,28.4,28.4,0,0,1,31.862,24.5c.007,4.173.064,8.347.12,12.52.006.456-.108.632-.565.73a66.717,66.717,0,0,1-12.132,1.378c-.839.024-.794.031-.843.853a4.983,4.983,0,0,0,.673,2.828C19.7,43.851,20.188,44.942,20.769,46.112Z"
                                            transform="translate(0 0)" />
                                        <path id="Path_87" data-name="Path 87"
                                            d="M.076,0,9.022.085c.017.181.047.357.048.533.036,3.574.083,7.148.1,10.722A4.476,4.476,0,0,1,5.3,16.073,4.576,4.576,0,0,1,.16,11.545C.027,7.787.062,4.026.027.266A1.655,1.655,0,0,1,.076,0Z"
                                            transform="translate(11.738 48.357)" />
                                    </g>
                                </svg>