  <svg id="Group_49" data-name="Group 49" xmlns="http://www.w3.org/2000/svg" width="46.2"
                                    height="50.973" viewBox="0 0 46.2 50.973">
                                    <path id="Path_88" data-name="Path 88"
                                        d="M54.178,281.843c.5,0,.96.008,1.415,0,.242-.006.374.058.372.343-.017,2.433.037,4.868-.058,7.3a3.5,3.5,0,0,1-7,.019c-.092-1.706-.043-3.42-.053-5.13,0-.723.007-1.445,0-2.168,0-.267.095-.369.354-.362.457.013.914,0,1.4,0v-3.587h-8.86v.6c0,3.259-.007,6.519.009,9.778,0,.407-.109.533-.507.519-.862-.03-1.726-.026-2.588,0-.369.011-.456-.125-.455-.482.011-3.274.007-6.548.007-9.822v-.619h-.566c-2.6,0-5.206-.009-7.808.009-.418,0-.533-.121-.53-.547q.027-4.026,0-8.052c0-.425.113-.549.531-.547,2.6.019,5.205.009,7.808.009h.565c0-.774.008-1.493,0-2.211-.007-.452.117-1.047-.111-1.31-.2-.228-.808-.093-1.236-.094-2.33,0-4.659-.012-6.988.007-.419,0-.571-.087-.567-.555q.034-4.026,0-8.052c0-.438.134-.537.539-.537q15.508.016,31.017.015a2.286,2.286,0,0,1,.794.153c4.459,1.7,8.912,3.409,13.373,5.1a.611.611,0,0,1,.473.7c-.03.869-.034,1.741,0,2.61.018.45-.115.57-.554.569q-10.073-.021-20.146-.01a1.216,1.216,0,0,0-.385.012c-.1.033-.232.148-.233.229-.015,1.1-.01,2.206-.01,3.377H74.918c.581,0,.581,0,.581.608,0,.87-.012,1.741.006,2.61a.51.51,0,0,1-.38.58q-6.785,2.594-13.563,5.209a1.929,1.929,0,0,1-.672.115c-2.085.008-4.17.013-6.255,0-.355,0-.473.1-.465.471C54.193,279.717,54.178,280.747,54.178,281.843Zm-12.4-16.335v3.562h8.83v-3.562Z"
                                        transform="translate(-29.311 -241.802)" />
                                    <path id="Path_89" data-name="Path 89"
                                        d="M117.15,102.96v1.782H113.6c0-.471-.012-.936,0-1.4.01-.284-.084-.4-.369-.386-.358.018-.718,0-1.077.006-.227.006-.346-.066-.344-.325.018-2.46-.033-4.922.063-7.379a3.491,3.491,0,0,1,3.5-3.232,3.527,3.527,0,0,1,3.492,3.243c.088,1.409.045,2.827.053,4.241.006,1-.011,2,.008,3.006.006.351-.108.47-.446.45C118.057,102.941,117.628,102.96,117.15,102.96Z"
                                        transform="translate(-104.698 -92.027)" />
                                    <path id="Path_90" data-name="Path 90"
                                        d="M279.942,142.113h-3.46c-.011-.146-.03-.286-.03-.425,0-2.728,0-5.456-.008-8.185,0-.352.078-.5.451-.486.905.025,1.812.012,2.717.006.233,0,.377.035.376.332q-.014,4.313-.013,8.627A.736.736,0,0,1,279.942,142.113Z"
                                        transform="translate(-255.119 -129.389)" />
                                </svg>