  <svg id="Group_51" data-name="Group 51" xmlns="http://www.w3.org/2000/svg"
                                    width="54.778" height="34.177" viewBox="0 0 54.778 34.177">
                                    <path id="Path_91" data-name="Path 91"
                                        d="M114.087,212.68q9.672,0,19.343,0a2.014,2.014,0,1,1,.353,4.012,1.108,1.108,0,0,0-.814.389q-5.976,6.312-11.966,12.609a3.886,3.886,0,0,1-4.384,1.105q-9.465-3.219-18.933-6.429a2.2,2.2,0,0,1-1.551-1.791c-.364-1.813-.774-3.616-1.146-5.427-.068-.329-.188-.444-.528-.452a2.006,2.006,0,0,1,.045-4.012c2.582-.017,5.164-.006,7.747-.006Z"
                                        transform="translate(-80.868 -212.677)" />
                                    <path id="Path_92" data-name="Path 92"
                                        d="M13.2,322.656a3.852,3.852,0,0,0,4.172,3.166,3.906,3.906,0,0,0,3.45-3.416,3.97,3.97,0,0,0-2.622-4.353c-1.371-.5-2.76-.956-4.141-1.432-.105-.036-.211-.071-.315-.111a.994.994,0,0,1-.729-.921,1.017,1.017,0,0,1,.657-1.029,7.347,7.347,0,0,1,5.6-.4,8.079,8.079,0,0,1,4.4,11.813,7.774,7.774,0,0,1-8.421,3.708,7.959,7.959,0,0,1-6.081-7.024,2.481,2.481,0,0,1-.037-.775c.151-.61-.181-.765-.649-.926-1.831-.629-3.655-1.284-5.473-1.952a.549.549,0,0,0-.725.2c-2.538,3.013-5.1,6-7.633,9.021a3.99,3.99,0,0,1-3.433,1.643,3.877,3.877,0,0,1-3.509-3.724c-.033-.4-.03-.812-.03-1.218,0-3.592-.015-7.183.014-10.775a.772.772,0,0,0-.625-.88q-7.817-2.751-15.622-5.54a4.9,4.9,0,0,1-.532-.208,1.492,1.492,0,0,1-.79-1.863,1.418,1.418,0,0,1,1.809-.915c1.738.557,3.467,1.143,5.2,1.72q20.078,6.694,40.157,13.386a2.061,2.061,0,0,1,1.615,1.823,1.961,1.961,0,0,1-2.613,2.077c-.86-.278-1.706-.6-2.559-.907C13.573,322.781,13.41,322.728,13.2,322.656Zm-21.666,3.181,7.094-8.4-7.094-2.525Z"
                                        transform="translate(29.962 -295.694)" />
                                    <path id="Path_93" data-name="Path 93" d="M196.1,420.72V409.8l7.094,2.525Z"
                                        transform="translate(-174.608 -390.577)" />
                                </svg>