 <svg id="Group_53" data-name="Group 53" xmlns="http://www.w3.org/2000/svg"
                                    width="44.888" height="55.086" viewBox="0 0 44.888 55.086">
                                    <path id="Path_94" data-name="Path 94"
                                        d="M64.9,356.293l3.692.565c-.239,1.454-.446,2.867-.71,4.269a7.346,7.346,0,0,1-1.33,2.973,7.61,7.61,0,0,1-8.4,2.835,7.888,7.888,0,0,1-5.458-6.982c-.027-.381-.034-.764-.034-1.146q0-9.754,0-19.508a4.038,4.038,0,0,0-1.494-3.389,3.862,3.862,0,0,0-2.488-.787c-1.678,0-3.357-.01-5.035.006-.365,0-.484-.1-.475-.487.025-.972.02-1.944,0-2.916-.006-.329.09-.446.42-.443,1.911.018,3.824-.023,5.734.033a7.494,7.494,0,0,1,6.973,6.487,12.08,12.08,0,0,1,.1,1.523q.009,9.873,0,19.747a4.1,4.1,0,0,0,2.285,3.956,3.887,3.887,0,0,0,5.471-2.538c.287-1.187.428-2.411.636-3.619C64.825,356.7,64.859,356.531,64.9,356.293Z"
                                        transform="translate(-43.176 -312.18)" />
                                    <path id="Path_95" data-name="Path 95"
                                        d="M421.135,373.855a1.862,1.862,0,0,1,1.4-2.014c1.341-.257,2.7-.463,4.052-.608a1.723,1.723,0,0,1,1.911,1.51c.3,1.8.547,3.619.807,5.431q.724,5.058,1.435,10.118a1.888,1.888,0,0,1-1.6,2.325c-1.239.22-2.486.4-3.733.562a1.848,1.848,0,0,1-2.048-1.656c-.506-3.465-.994-6.933-1.488-10.4q-.344-2.411-.687-4.822C421.165,374.112,421.144,373.922,421.135,373.855Z"
                                        transform="translate(-385.886 -348.299)" />
                                    <path id="Path_96" data-name="Path 96"
                                        d="M267.034,388.894c.161-1.123.351-2.446.54-3.77.552-3.86,1.1-7.72,1.658-11.578a1.849,1.849,0,0,1,2.275-1.733c1.153.162,2.307.322,3.456.517a1.886,1.886,0,0,1,1.66,2.282c-.4,2.917-.826,5.83-1.24,8.745-.3,2.1-.611,4.189-.889,6.287a1.983,1.983,0,0,1-2.514,1.954c-1.1-.178-2.212-.334-3.317-.511A1.947,1.947,0,0,1,267.034,388.894Z"
                                        transform="translate(-246.155 -348.808)" />
                                    <path id="Path_97" data-name="Path 97"
                                        d="M319.53,153.14l-3.888-.585c.115-.846.218-1.645.332-2.442q1.139-7.987,2.283-15.974c.036-.252.069-.5.109-.756a1.932,1.932,0,0,1,1.72-1.738,13.745,13.745,0,0,1,1.674-.072c.4,0,.583.249.512.662a3.248,3.248,0,0,1-1.021,1.723,1.833,1.833,0,0,0-.241,2.431,2.765,2.765,0,0,0,.936.744,1.171,1.171,0,0,1,.728,1.011,1.2,1.2,0,0,1-.639,1.213,1.919,1.919,0,0,0,.025,3.47c.5.3,1,.584,1.475.914a2.646,2.646,0,0,1-.1,4.435c-.5.318-1.015.62-1.54.894a3.966,3.966,0,0,0-2.212,3.157C319.641,152.508,319.588,152.786,319.53,153.14Zm3.518-7.213a.937.937,0,0,0-.906-.954.941.941,0,0,0-.026,1.882A.934.934,0,0,0,323.047,145.927Z"
                                        transform="translate(-290.231 -131.573)" />
                                    <path id="Path_98" data-name="Path 98"
                                        d="M406.251,153.5l-3.9.591c-.138-1.869-.8-3.372-2.664-4.127a3.78,3.78,0,0,0,1.723-3.039,3.643,3.643,0,0,0-1.427-2.981,6.84,6.84,0,0,0,.8-1.08,1.875,1.875,0,0,0-.854-2.44,1.205,1.205,0,0,1-.645-1.512c.111-.5.519-.636.893-.826a1.913,1.913,0,0,0,.526-3.051,2.305,2.305,0,0,1-.355-.377,10.09,10.09,0,0,1-.7-1.38c-.142-.381.088-.656.493-.661a14.682,14.682,0,0,1,1.537.045,2,2,0,0,1,1.9,1.843q.751,5.2,1.485,10.4.562,3.949,1.121,7.9C406.209,153.009,406.222,153.214,406.251,153.5Z"
                                        transform="translate(-366.023 -132.514)" />
                                </svg>