  <svg xmlns="http://www.w3.org/2000/svg" width="52.436" height="58.239"
                                    viewBox="0 0 52.436 58.239">
                                    <g id="Group_30" data-name="Group 30"
                                        transform="matrix(0.839, 0.545, -0.545, 0.839, 27.146, -0.254)">
                                        <path id="Path_65" data-name="Path 65"
                                            d="M1.352,18.353c.074.153.116.244.162.333a13.819,13.819,0,0,0,5.438,5.737A4.2,4.2,0,0,1,9.2,28.378c0,4.618.1,9.238.139,13.858a8.6,8.6,0,0,0,.829,3.7A6.885,6.885,0,0,0,21.388,48a7.653,7.653,0,0,0,2.13-5.669c-.063-5.11-.111-10.22-.183-15.33a3.551,3.551,0,0,1,1.228-2.85c.339-.3.691-.588,1.041-.877a12.311,12.311,0,0,0,3.613-4.736A12,12,0,0,0,27.325,5.7,15.243,15.243,0,0,0,17.931.239a1.7,1.7,0,0,0-2.058,1.332A3,3,0,0,0,16.091,3c.978,2.454,2,4.893,3.013,7.333.135.324.139.487-.233.643q-8.222,3.441-16.431,6.914C2.09,18.033,1.742,18.185,1.352,18.353Zm8.407-7.467C8.81,8.694,7.936,6.545,6.947,4.448A1.731,1.731,0,0,0,4.1,4.106,12.381,12.381,0,0,0,.283,11.383a10.715,10.715,0,0,0,.029,3.522Z"
                                            transform="translate(0)" fill="#fff" />
                                        <path id="Path_66" data-name="Path 66"
                                            d="M.211,18.34c.39-.168.739-.32,1.089-.468q8.213-3.463,16.431-6.914c.372-.156.368-.318.233-.643-1.017-2.439-2.035-4.878-3.013-7.333a3,3,0,0,1-.217-1.425A1.7,1.7,0,0,1,16.79.226a15.243,15.243,0,0,1,9.394,5.456A12,12,0,0,1,28.076,18.53a12.311,12.311,0,0,1-3.613,4.736c-.35.289-.7.576-1.041.877a3.551,3.551,0,0,0-1.228,2.85c.073,5.11.121,10.22.183,15.33a7.653,7.653,0,0,1-2.13,5.669A6.885,6.885,0,0,1,9.03,45.919a8.6,8.6,0,0,1-.829-3.7c-.043-4.619-.134-9.239-.139-13.858A4.2,4.2,0,0,0,5.811,24.41,13.819,13.819,0,0,1,.373,18.673C.327,18.584.285,18.493.211,18.34Zm17.648,24.65a2.665,2.665,0,0,0-2.572-2.64,2.513,2.513,0,0,0-2.559,2.571,2.654,2.654,0,0,0,2.59,2.616A2.514,2.514,0,0,0,17.859,42.989ZM12.673,15.961l-1.626.663,1.917,4.569,1.624-.668Zm8.415,1.851c-.621-1.485-1.22-2.927-1.833-4.363A.3.3,0,0,0,19,13.323c-.475.173-.94.372-1.45.58l1.916,4.563Zm-3.246,1.358-1.916-4.561c-.455.179-.855.353-1.266.494-.3.1-.341.243-.211.542.537,1.235,1.047,2.481,1.569,3.722.06.143.132.281.215.455Z"
                                            transform="translate(1.141 0.013)" />
                                        <path id="Path_67" data-name="Path 67"
                                            d="M9.719,7.428.272,11.448A10.715,10.715,0,0,1,.243,7.925,12.381,12.381,0,0,1,4.064.648,1.731,1.731,0,0,1,6.908.99C7.9,3.087,8.77,5.236,9.719,7.428Z"
                                            transform="translate(0.04 3.458)" />
                                    </g>
                                </svg>