  <svg xmlns="http://www.w3.org/2000/svg" width="57.95" height="60.706"
                                    viewBox="0 0 57.95 60.706">
                                    <g id="Group_32" data-name="Group 32" transform="translate(0.329 -0.496)">
                                        <path id="Path_68" data-name="Path 68"
                                            d="M11.094.245c.082.169.169.336.247.506q2.71,5.95,5.412,11.9a.792.792,0,0,0,.715.54A6.679,6.679,0,0,1,20.706,14.5q.233.176.47.347a.913.913,0,0,0,.166.053,7.605,7.605,0,0,0-4-4.447L21.773.27c.55.754,1.055,1.4,1.512,2.084a18.486,18.486,0,0,1,3.049,7.226A12.554,12.554,0,0,1,24.58,18.6a3.309,3.309,0,0,0-.65,2.065,1.46,1.46,0,0,0,.585,1.213,23.225,23.225,0,0,1,8.534,14.693,22.324,22.324,0,0,1-1.8,13.091,3.539,3.539,0,0,1-4.73,1.75,3.765,3.765,0,0,1-1.881-4.933A15.441,15.441,0,0,0,22.4,29.913,24.28,24.28,0,0,0,19.829,27.4a.558.558,0,0,0-.472-.089,7.483,7.483,0,0,1-5.209-.073.57.57,0,0,0-.469.091,14.9,14.9,0,0,0-5.9,12.092,15.63,15.63,0,0,0,1.565,6.841,3.587,3.587,0,0,1-1.755,4.917A3.7,3.7,0,0,1,2.8,49.252,22.835,22.835,0,0,1,.635,36.679a21.922,21.922,0,0,1,7.207-14.09c.421-.385.86-.752,1.316-1.094a.6.6,0,0,0,.27-.713.957.957,0,0,1-.033-.443,2.087,2.087,0,0,0-.525-1.674,12.948,12.948,0,0,1-2.115-9.5A18.983,18.983,0,0,1,10.97.3C10.986.283,11.021.278,11.094.245Zm8.312,20.182a2.8,2.8,0,0,0-2.789-2.747,2.638,2.638,0,0,0-2.66,2.7,2.819,2.819,0,0,0,2.767,2.777A2.657,2.657,0,0,0,19.406,20.427Z"
                                            transform="translate(31.86 0) rotate(39)" />
                                    </g>
                                </svg>