  <svg xmlns="http://www.w3.org/2000/svg" width="42.689" height="57.373"
                                    viewBox="0 0 42.689 57.373">
                                    <g id="Group_34" data-name="Group 34"
                                        transform="matrix(0.914, 0.407, -0.407, 0.914, 9.449, -0.028)">
                                        <path id="Path_69" data-name="Path 69"
                                            d="M21.971,16.268c.012,1.289.012,2.579.044,3.868.009.361-.1.453-.449.447q-3.207-.052-6.413-.059c-.37,0-.438-.138-.438-.473q0-3.351-.028-6.7a7.941,7.941,0,0,0-.9-3.779,3.568,3.568,0,0,0-5.768-1,2.567,2.567,0,0,1-1.979.768C4.48,9.295,2.917,9.3,1.354,9.284.384,9.274.086,8.971.076,7.98Q.042,4.628.014,1.277C.006.318.308.016,1.248.025,2.811.039,4.375.082,5.936.057a2.648,2.648,0,0,1,2.03.821,3.351,3.351,0,0,0,3.8.8,4.853,4.853,0,0,0,1.363-.94A2.135,2.135,0,0,1,14.642.148c2.374.031,4.747.042,7.121.073A11.256,11.256,0,0,1,26.886,1.7,20.557,20.557,0,0,1,35.2,9.514c.441.747.754,1.571,1.136,2.354.119.244.078.394-.17.489a1.288,1.288,0,0,0-.312.161c-.27.2-.427.1-.6-.166a10.319,10.319,0,0,0-3.907-3.633,8.035,8.035,0,0,0-5.708-.845,4.648,4.648,0,0,0-3.63,4.484c-.053,1.3.012,2.607.025,3.911ZM5.47,1.913c-1.177-.011-2.291-.028-3.4-.019-.075,0-.2.191-.207.3-.022.4.006.807,0,1.21-.005.263.119.331.353.332q1.477,0,2.954.027c.21,0,.331-.049.324-.3C5.473,2.976,5.476,2.484,5.47,1.913Z"
                                            transform="translate(0 0)" />
                                        <path id="Path_70" data-name="Path 70"
                                            d="M5.689.061C6.766.071,7.842.07,8.919.1A.626.626,0,0,1,9.4.368a25.088,25.088,0,0,1,1.846,6.3,31.465,31.465,0,0,1,.035,5.972,70.362,70.362,0,0,0-.26,9.744c.073.986.251,1.965.374,2.949a4.472,4.472,0,0,1-.778,3.522,2.2,2.2,0,0,1-1.847.858c-1.784-.027-3.569-.037-5.353-.054A2.772,2.772,0,0,1,.507,27.28a6.871,6.871,0,0,1-.015-2.724,28.9,28.9,0,0,0,.2-6.5C.53,15.373.31,12.694.126,10.014a19.852,19.852,0,0,1,1.3-8.392c.151-.4.31-.8.441-1.215A.479.479,0,0,1,2.416.023C3.507.051,4.6.051,5.689.061Z"
                                            transform="translate(12.751 22.34)" />
                                    </g>
                                </svg>