  <svg xmlns="http://www.w3.org/2000/svg" width="66.652" height="69.329"
                                    viewBox="0 0 66.652 69.329">
                                    <g id="Group_36" data-name="Group 36" transform="translate(38.283 -0.17) rotate(60)"
                                        opacity="0.8">
                                        <path id="Path_71" data-name="Path 71"
                                            d="M6.941,20.643c.3-.14.524-.261.76-.351a14,14,0,0,0,6.966-5.683.758.758,0,0,1,.747-.4,15.055,15.055,0,0,0,4.772-.311c1.017-.316,2.011-.7,3.016-1.054l-.038-.183c-.265,0-.53-.008-.795-.008a13.119,13.119,0,0,1-5.49-.845,14.588,14.588,0,0,1-1.821-.952A14.751,14.751,0,0,0,1.453,9.363c-.168.062-.34.113-.561.186C.617,9.047.338,8.573.1,8.079a.465.465,0,0,1,.121-.4A23.652,23.652,0,0,1,14.309.356a20.124,20.124,0,0,1,10.953,1.6,21.674,21.674,0,0,0,9.1,1.819c6.492.032,12.985.13,19.478.2.75.008.75.009.758.749.029,2.568.046,5.136.1,7.7.009.46-.135.585-.589.576-2.158-.044-4.316-.047-6.474-.088a1.03,1.03,0,0,0-.886.406q-4.356,5.068-8.735,10.117l-.375.431c-.143-.611-.258-1.1-.369-1.58-.335-1.462-.653-2.928-1.011-4.385a.858.858,0,0,1,.218-.879c1.061-1.19,2.1-2.4,3.144-3.6.128-.147.249-.3.437-.531l-8.1-.088a2.469,2.469,0,0,0,.107.323,36.341,36.341,0,0,1,2.946,9.475A48.488,48.488,0,0,0,42.078,40.18c.537.817,1.132,1.6,1.707,2.39a.953.953,0,0,1,.1,1.253,1.229,1.229,0,0,1-1.45.322,1.755,1.755,0,0,1-.5-.346,66.948,66.948,0,0,1-6.606-7.192,48.038,48.038,0,0,1-3.857-6.572q-2.229-4.317-4.631-8.548a4.373,4.373,0,0,0-6.422-1.746A22.585,22.585,0,0,1,8.546,22.618a.8.8,0,0,1-.813-.5C7.508,21.634,7.232,21.177,6.941,20.643ZM19.681,8.6a1.933,1.933,0,0,0,1.955-1.928A2.065,2.065,0,0,0,19.644,4.68a1.934,1.934,0,0,0-1.972,1.966A2.008,2.008,0,0,0,19.681,8.6Z"
                                            transform="translate(0 0)" fill="#d1d1d1" />
                                        <path id="Path_72" data-name="Path 72"
                                            d="M.074,6.757.025,2.26c.606.007,1.19,0,1.773.025.362.018.495-.111.476-.467A10.738,10.738,0,0,1,2.271.4c.01-.133.212-.353.332-.354C3.982.036,5.362.06,6.779.075l.1,9.016L5.694,9.079c-.94-.01-1.881-.038-2.82-.023-.421.007-.559-.147-.537-.546s-.024-.8,0-1.2-.11-.561-.534-.541C1.237,6.794.67,6.764.074,6.757Z"
                                            transform="translate(56.884 4.012)" fill="#d1d1d1" />
                                    </g>
                                </svg>