 <svg xmlns="http://www.w3.org/2000/svg" width="55.306" height="62.478"
                                    viewBox="0 0 55.306 62.478">
                                    <g id="Group_39" data-name="Group 39"
                                        transform="matrix(0.875, 0.485, -0.485, 0.875, 25.522, -0.314)">
                                        <path id="Path_73" data-name="Path 73"
                                            d="M.157,14.4c.019,1.831.03,3.661.058,5.492A1.983,1.983,0,0,0,2.4,22.085c1.761.019,3.522.02,5.283.066,2.24.061,4.488.067,6.721.274a20.492,20.492,0,0,1,7.893,2.6,25.16,25.16,0,0,1,4.632,3.335,1.935,1.935,0,0,0,3.264-.4,23.124,23.124,0,0,0,2.786-5.507,22.858,22.858,0,0,0,.851-11.7A23.526,23.526,0,0,0,29.88,1.424c-.9-1.291-2.029-1.486-3.175-.483a24.437,24.437,0,0,1-4.319,3.12A21.167,21.167,0,0,1,12.167,6.825c-3.269.02-6.529-.052-9.8-.078C.789,6.729.092,7.445.1,9.046Zm2.035,9.622a6.313,6.313,0,0,0,.875,4.137,6.807,6.807,0,0,1,1.061,3.782c.006,2.224.047,4.448.062,6.681a28.761,28.761,0,0,0,3.126,12.9,1.96,1.96,0,0,0,2.9,1q2.667-1.385,5.325-2.779a1.906,1.906,0,0,0,.764-2.911c-.68-1.133-1.342-2.266-2.032-3.4a17.769,17.769,0,0,1-2.573-9.3c-.007-3.157-.067-6.315-.11-9.464l-.006-.54C8.405,24.09,5.308,24.056,2.192,24.023Zm9.169-19.1A1.355,1.355,0,0,0,11.4,4.7c-.006-.595.005-1.19-.028-1.785A1.825,1.825,0,0,0,9.723,1.124q-2.141-.119-4.281-.046A1.682,1.682,0,0,0,3.835,2.726c-.048.539,0,1.1-.028,1.638-.014.375.1.5.484.5,2.212.006,4.416.039,6.628.062A3.531,3.531,0,0,0,11.362,4.922Z"
                                            transform="translate(0 0)" />
                                        <path id="Path_74" data-name="Path 74"
                                            d="M.153,14.4.1,9.043c-.017-1.6.689-2.317,2.26-2.3,3.269.035,6.53.1,9.8.078A21.224,21.224,0,0,0,22.374,4.058,24.437,24.437,0,0,0,26.693.939c1.145-1,2.276-.8,3.175.483a23.526,23.526,0,0,1,3.946,9.322,22.813,22.813,0,0,1-3.636,17.211,1.935,1.935,0,0,1-3.264.4,24.742,24.742,0,0,0-4.632-3.335,20.444,20.444,0,0,0-7.893-2.6c-2.233-.207-4.481-.213-6.721-.274-1.761-.046-3.522-.038-5.283-.066A1.98,1.98,0,0,1,.212,19.889Z"
                                            transform="translate(0.004 0.003)" />
                                        <path id="Path_75" data-name="Path 75"
                                            d="M.066,0,9.458.1l.006.54c.043,3.158.1,6.316.11,9.464a17.582,17.582,0,0,0,2.573,9.3c.68,1.133,1.351,2.266,2.032,3.4a1.906,1.906,0,0,1-.764,2.911q-2.653,1.4-5.325,2.78a1.962,1.962,0,0,1-2.9-1,28.761,28.761,0,0,1-3.126-12.9C2.04,12.367,2,10.143,2,7.91A6.735,6.735,0,0,0,.941,4.128,6.276,6.276,0,0,1,.066,0Z"
                                            transform="translate(2.126 24.022)" />
                                        <path id="Path_76" data-name="Path 76"
                                            d="M7.592,3.9c-.144.008-.289.015-.442.014C4.937,3.89,2.734,3.857.521,3.852c-.379,0-.5-.124-.484-.5.03-.549-.021-1.1.028-1.638A1.676,1.676,0,0,1,1.673.066Q3.812-.007,5.954.112A1.825,1.825,0,0,1,7.6,1.905c.024.6.022,1.19.028,1.785A1.7,1.7,0,0,1,7.592,3.9Z"
                                            transform="translate(3.769 1.021)" />
                                    </g>
                                </svg>