 <svg xmlns="http://www.w3.org/2000/svg" width="60.939" height="53.931"
                                    viewBox="0 0 60.939 53.931">
                                    <g id="Group_41" data-name="Group 41" transform="translate(0 0)">
                                        <path id="Path_77" data-name="Path 77"
                                            d="M220.329,358l-9.208,9.181-1.136-4.384-4.466,1.188-1.18-4.575-4.471,1.18-1.183-4.573-4.47,1.184-1.175-4.571c-.729.188-1.422.364-2.114.547-.563.149-1.124.309-1.687.461-.677.183-.681.183-.865-.536-.283-1.1-.56-2.2-.842-3.306-.044-.172-.1-.342-.165-.562l-4.458,1.181-1.177-4.573-4.432,1.178-1.22-4.785c.8-.249,1.539-.483,2.28-.707,2.722-.824,5.439-1.663,8.169-2.458a8.5,8.5,0,0,0,3.363-1.879c1.573-1.424,3.1-2.9,4.634-4.369a5.879,5.879,0,0,0,.553-.693Zm-6.3,1.739a2.015,2.015,0,0,0,0-4.029,2.019,2.019,0,0,0-1.978,2.047A2,2,0,0,0,214.027,359.738Z"
                                            transform="translate(-159.39 -313.249)" />
                                        <path id="Path_78" data-name="Path 78"
                                            d="M51.778,175.478a4.191,4.191,0,0,1-.513,1.269,50.817,50.817,0,0,1-3.647,3.838,6.078,6.078,0,0,1-2.28,1.2c-4.708,1.458-9.433,2.856-14.154,4.268-2.074.621-3.763-.214-5.308-1.526a15.079,15.079,0,0,1-3.3-4.14,11.119,11.119,0,0,0-3.116-3.63,2.29,2.29,0,0,1-.359-3.532,1.881,1.881,0,0,1,1.549-.563,2.622,2.622,0,0,0,2.341-1.085,39.95,39.95,0,0,1,3-3.128,13.725,13.725,0,0,1,5.211-2.794c.924-.3,1.848-.6,2.754-.955a2.184,2.184,0,0,0,1.406-2.981c-.213-.708-.43-1.415-.633-2.126a.994.994,0,0,1,.344-1.161.921.921,0,0,1,1.09.04,11.9,11.9,0,0,1,4.9,5.174,4.335,4.335,0,0,0,2.35,2.27,4.368,4.368,0,0,1,1.471,1.11c2.017,2.177,3.995,4.392,5.992,6.588A3.021,3.021,0,0,1,51.778,175.478Zm-24.652,2.027a2.254,2.254,0,0,0,2.749,2.333,29.673,29.673,0,0,0,7.309-2.308,30.781,30.781,0,0,0,4.292-2.429,3.06,3.06,0,0,0,.609-4.291,2.592,2.592,0,0,0-3.924-.4,26.582,26.582,0,0,1-5.883,3.4c-1.189.5-2.408.926-3.61,1.4A2.361,2.361,0,0,0,27.126,177.505Z"
                                            transform="translate(-18.43 -158.267)" />
                                    </g>
                                </svg>