<svg id="Group_43" data-name="Group 43" xmlns="http://www.w3.org/2000/svg"
                                    width="65.519" height="41.711" viewBox="0 0 65.519 41.711">
                                    <path id="Path_79" data-name="Path 79"
                                        d="M56.422,299.214c.3-1.182.564-2.269.844-3.353q4.157-16.128,8.31-32.258a4.492,4.492,0,0,1,3.561-3.714,14.279,14.279,0,0,1,2.495-.1c.8-.014,1.594-.018,2.39,0,.366.01.512-.11.5-.5-.025-.58-.006-1.163-.006-1.788h31.614c.01.175.031.361.031.548,0,5.78-.006,11.559.013,17.339,0,.529-.157.659-.646.645-1.137-.034-2.276,0-3.414-.017-.367-.006-.511.116-.5.5.023.563.016,1.129,0,1.693a2.42,2.42,0,0,1-2.264,2.451,2.5,2.5,0,0,1-2.26-2.48c-.01-.7,0-1.391,0-2.155-1.441,0-2.82-.01-4.2.019-.105,0-.285.269-.294.422-.037.621.011,1.247-.029,1.867a2.307,2.307,0,0,1-2.72,2.253,2.492,2.492,0,0,1-1.757-2.2c-.031-.641-.017-1.284-.011-1.926,0-.277-.066-.438-.379-.435-1.363.009-2.726,0-4.179,0,0,.716.023,1.389-.009,2.06a3.406,3.406,0,0,1-.208,1.131,2.2,2.2,0,0,1-2.321,1.408,2.45,2.45,0,0,1-1.938-2.166,11.986,11.986,0,0,1-.032-1.691c.034-.569-.119-.769-.722-.76-2.56.038-5.122.031-7.683,0a.8.8,0,0,0-.9.631q-2.414,6.7-4.878,13.387a29.773,29.773,0,0,1-1.7,4.127,10.2,10.2,0,0,1-5.8,4.877,3.343,3.343,0,0,1-.385.1C56.809,299.16,56.679,299.175,56.422,299.214ZM90.3,262.1c-3.565,0-7.13.008-10.7-.01-.466,0-.629.129-.616.621.031,1.166.021,2.334,0,3.5-.006.392.1.546.511.546q10.809-.016,21.618,0c.427,0,.5-.184.5-.56-.015-1.128-.032-2.257.006-3.384.019-.55-.125-.732-.688-.728C97.389,262.113,93.843,262.1,90.3,262.1Z"
                                        transform="translate(-51.93 -257.503)" />
                                    <path id="Path_80" data-name="Path 80"
                                        d="M180.55,451.994a6.523,6.523,0,0,1-6.535-3.483c-1.078-2.159-1.941-4.431-2.882-6.661a.843.843,0,0,1,.03-.55c.6-1.679,1.222-3.351,1.823-5.03a.493.493,0,0,1,.537-.379c1.709-.04,1.708-.048,2.249,1.591q2.28,6.906,4.561,13.811C180.4,451.512,180.468,451.732,180.55,451.994Z"
                                        transform="translate(-153.552 -415.056)" />
                                    <path id="Path_81" data-name="Path 81"
                                        d="M512.888,306.026v-.633c0-2.663.011-5.327-.01-7.99,0-.492.1-.693.626-.676,1.136.038,2.274.026,3.411,0,.4-.007.537.144.521.544-.023.576-.006,1.154-.006,1.8h4.517a34.144,34.144,0,0,0-1.607,3.251,1.785,1.785,0,0,1-2.26,1.372c-.539-.109-.686.159-.66.68s.157,1.263-.107,1.5c-.31.279-1,.136-1.519.144C514.851,306.036,513.906,306.026,512.888,306.026Z"
                                        transform="translate(-456.427 -292.147)" />
                                    <path id="Path_82" data-name="Path 82"
                                        d="M16.957,292.506l3.23-3.272c.838.884,1.738,1.8,2.594,2.754a1.347,1.347,0,0,0,1.14.477c1.4-.027,2.8-.01,4.253-.01-.032.2-.046.346-.08.486-.3,1.244-.595,2.491-.924,3.727a.617.617,0,0,1-.417.392c-1.686.028-3.373.024-5.059.008a.78.78,0,0,1-.492-.225C19.786,295.411,18.382,293.966,16.957,292.506Z"
                                        transform="translate(-16.957 -285.53)" />
                                </svg>