 <svg xmlns="http://www.w3.org/2000/svg" width="45.231" height="60.562"
                                    viewBox="0 0 45.231 60.562">
                                    <g id="Group_45" data-name="Group 45"
                                        transform="translate(19.214 -1.487) rotate(20)">
                                        <path id="Path_83" data-name="Path 83"
                                            d="M8.027,16.191l5.905.048-.065-8.045-.635-.005-11.714-.1C.369,8.083.064,7.771.054,6.6Q.032,3.96.012,1.316C.006.374.352.012,1.279.02Q13.233.113,25.187.207c.39,0,.533.11.527.525-.016,1.139.01,2.28.019,3.386a10.228,10.228,0,0,0-1.579.488A4.045,4.045,0,0,0,21.8,8.556q.106,12.751.208,25.5a4.381,4.381,0,0,1-.579,2.473,3.7,3.7,0,0,1-3.918,1.836,3.859,3.859,0,0,1-3.184-2.934,5.708,5.708,0,0,1-.213-1.593c-.043-3.051-.106-6.1-.067-9.153a4.421,4.421,0,0,0-3.875-4.446c-1.507-.119-2.116-.88-2.13-2.421C8.035,17.3,8.032,16.783,8.027,16.191Zm8.18,18.165,1.854,1.881,1.786-1.845L18.04,32.511Z"
                                            transform="translate(0.146 18.191)" />
                                        <path id="Path_84" data-name="Path 84"
                                            d="M23.755,6.314l.032,3.994c-.2.008-.4.023-.6.022q-6.77-.053-13.541-.11c-.16,0-.32-.007-.48,0A1.032,1.032,0,0,0,8.023,11.4c0,1.436.008,2.872.038,4.308.008.387-.074.545-.494.538-2.321-.038-4.642-.048-6.962-.065-.252,0-.473.014-.473-.366,0-2.382-.081-4.767-.017-7.146A7.892,7.892,0,0,1,4.692,1.456a10.967,10.967,0,0,1,12.379,1.2c1.407,1.074,2.814,2.149,4.2,3.247a1.637,1.637,0,0,0,1.188.4C22.875,6.281,23.291,6.31,23.755,6.314Z"
                                            transform="translate(3.942 0.032)" />
                                        <path id="Path_85" data-name="Path 85"
                                            d="M7.928.065c.007.841.022,1.668.017,2.5,0,.483.129,1.12-.115,1.4-.211.242-.868.094-1.329.092-1.983-.01-3.965-.039-5.948-.038-.395,0-.529-.118-.524-.528C.043,2.335.018,1.181.009,0Z"
                                            transform="translate(4.17 28.334)" />
                                    </g>
                                </svg>